<svg width="71" height="17" viewBox="0 0 71 17" fill="none" xmlns="http://www.w3.org/2000/svg">
<path d="M5.312 13.128C4.384 13.128 3.55733 12.9413 2.832 12.568C2.10667 12.184 1.536 11.656 1.12 10.984C0.714667 10.312 0.512 9.54933 0.512 8.696C0.512 7.832 0.714667 7.06933 1.12 6.408C1.536 5.736 2.10667 5.21333 2.832 4.84C3.55733 4.456 4.384 4.264 5.312 4.264C6.21867 4.264 7.008 4.456 7.68 4.84C8.352 5.21333 8.848 5.752 9.168 6.456L7.232 7.496C7.008 7.09067 6.72533 6.792 6.384 6.6C6.05333 6.408 5.69067 6.312 5.296 6.312C4.86933 6.312 4.48533 6.408 4.144 6.6C3.80267 6.792 3.53067 7.064 3.328 7.416C3.136 7.768 3.04 8.19467 3.04 8.696C3.04 9.19733 3.136 9.624 3.328 9.976C3.53067 10.328 3.80267 10.6 4.144 10.792C4.48533 10.984 4.86933 11.08 5.296 11.08C5.69067 11.08 6.05333 10.9893 6.384 10.808C6.72533 10.616 7.008 10.312 7.232 9.896L9.168 10.952C8.848 11.6453 8.352 12.184 7.68 12.568C7.008 12.9413 6.21867 13.128 5.312 13.128ZM14.5918 13.128C13.6744 13.128 12.8584 12.936 12.1438 12.552C11.4398 12.168 10.8798 11.6453 10.4638 10.984C10.0584 10.312 9.85575 9.54933 9.85575 8.696C9.85575 7.832 10.0584 7.06933 10.4638 6.408C10.8798 5.736 11.4398 5.21333 12.1438 4.84C12.8584 4.456 13.6744 4.264 14.5918 4.264C15.4984 4.264 16.3091 4.456 17.0238 4.84C17.7384 5.21333 18.2984 5.73067 18.7038 6.392C19.1091 7.05333 19.3118 7.82133 19.3118 8.696C19.3118 9.54933 19.1091 10.312 18.7038 10.984C18.2984 11.6453 17.7384 12.168 17.0238 12.552C16.3091 12.936 15.4984 13.128 14.5918 13.128ZM14.5918 11.08C15.0078 11.08 15.3811 10.984 15.7118 10.792C16.0424 10.6 16.3038 10.328 16.4958 9.976C16.6878 9.61333 16.7838 9.18667 16.7838 8.696C16.7838 8.19467 16.6878 7.768 16.4958 7.416C16.3038 7.064 16.0424 6.792 15.7118 6.6C15.3811 6.408 15.0078 6.312 14.5918 6.312C14.1758 6.312 13.8024 6.408 13.4718 6.6C13.1411 6.792 12.8744 7.064 12.6718 7.416C12.4798 7.768 12.3838 8.19467 12.3838 8.696C12.3838 9.18667 12.4798 9.61333 12.6718 9.976C12.8744 10.328 13.1411 10.6 13.4718 10.792C13.8024 10.984 14.1758 11.08 14.5918 11.08ZM20.9801 13V4.392H23.3641V6.824L23.0281 6.12C23.2841 5.512 23.6948 5.05333 24.2601 4.744C24.8255 4.424 25.5135 4.264 26.3241 4.264V6.568C26.2175 6.55733 26.1215 6.552 26.0361 6.552C25.9508 6.54133 25.8601 6.536 25.7641 6.536C25.0815 6.536 24.5268 6.73333 24.1001 7.128C23.6841 7.512 23.4761 8.11467 23.4761 8.936V13H20.9801ZM27.8239 13V4.392H30.2079V6.824L29.8719 6.12C30.1279 5.512 30.5385 5.05333 31.1039 4.744C31.6692 4.424 32.3572 4.264 33.1679 4.264V6.568C33.0612 6.55733 32.9652 6.552 32.8799 6.552C32.7945 6.54133 32.7039 6.536 32.6079 6.536C31.9252 6.536 31.3705 6.73333 30.9439 7.128C30.5279 7.512 30.3199 8.11467 30.3199 8.936V13H27.8239ZM34.6676 13V4.392H37.1636V13H34.6676ZM35.9156 3.192C35.457 3.192 35.0836 3.05867 34.7956 2.792C34.5076 2.52533 34.3636 2.19467 34.3636 1.8C34.3636 1.40533 34.5076 1.07467 34.7956 0.808C35.0836 0.541333 35.457 0.407999 35.9156 0.407999C36.3743 0.407999 36.7476 0.535999 37.0356 0.792C37.3236 1.03733 37.4676 1.35733 37.4676 1.752C37.4676 2.168 37.3236 2.51467 37.0356 2.792C36.7583 3.05867 36.385 3.192 35.9156 3.192ZM43.5281 16.232C42.7175 16.232 41.9335 16.1307 41.1761 15.928C40.4295 15.736 39.8055 15.4427 39.3041 15.048L40.2961 13.256C40.6588 13.5547 41.1175 13.7893 41.6721 13.96C42.2375 14.1413 42.7921 14.232 43.3361 14.232C44.2215 14.232 44.8615 14.0347 45.2561 13.64C45.6615 13.2453 45.8641 12.6587 45.8641 11.88V10.584L46.0241 8.424L45.9921 6.248V4.392H48.3601V11.56C48.3601 13.16 47.9441 14.3387 47.1121 15.096C46.2801 15.8533 45.0855 16.232 43.5281 16.232ZM43.1441 12.584C42.3441 12.584 41.6188 12.4133 40.9681 12.072C40.3281 11.72 39.8108 11.2347 39.4161 10.616C39.0321 9.98667 38.8401 9.256 38.8401 8.424C38.8401 7.58133 39.0321 6.85067 39.4161 6.232C39.8108 5.60267 40.3281 5.11733 40.9681 4.776C41.6188 4.43467 42.3441 4.264 43.1441 4.264C43.8695 4.264 44.5095 4.41333 45.0641 4.712C45.6188 5 46.0508 5.45333 46.3601 6.072C46.6695 6.68 46.8241 7.464 46.8241 8.424C46.8241 9.37333 46.6695 10.1573 46.3601 10.776C46.0508 11.384 45.6188 11.8373 45.0641 12.136C44.5095 12.4347 43.8695 12.584 43.1441 12.584ZM43.6401 10.536C44.0775 10.536 44.4668 10.4507 44.8081 10.28C45.1495 10.0987 45.4161 9.848 45.6081 9.528C45.8001 9.208 45.8961 8.84 45.8961 8.424C45.8961 7.99733 45.8001 7.62933 45.6081 7.32C45.4161 7 45.1495 6.75467 44.8081 6.584C44.4668 6.40267 44.0775 6.312 43.6401 6.312C43.2028 6.312 42.8135 6.40267 42.4721 6.584C42.1308 6.75467 41.8588 7 41.6561 7.32C41.4641 7.62933 41.3681 7.99733 41.3681 8.424C41.3681 8.84 41.4641 9.208 41.6561 9.528C41.8588 9.848 42.1308 10.0987 42.4721 10.28C42.8135 10.4507 43.2028 10.536 43.6401 10.536ZM50.6833 13V4.392H53.1793V13H50.6833ZM51.9313 3.192C51.4726 3.192 51.0993 3.05867 50.8113 2.792C50.5233 2.52533 50.3793 2.19467 50.3793 1.8C50.3793 1.40533 50.5233 1.07467 50.8113 0.808C51.0993 0.541333 51.4726 0.407999 51.9313 0.407999C52.3899 0.407999 52.7633 0.535999 53.0513 0.792C53.3393 1.03733 53.4833 1.35733 53.4833 1.752C53.4833 2.168 53.3393 2.51467 53.0513 2.792C52.7739 3.05867 52.4006 3.192 51.9313 3.192Z" fill="#32334A"/>
<path d="M54.1997 13L59.1918 1.8H61.7518L66.7598 13H64.0398L59.9438 3.112H60.9678L56.8558 13H54.1997ZM56.6957 10.6L57.3838 8.632H63.1438L63.8478 10.6H56.6957ZM67.9218 13V1.8H70.5138V13H67.9218Z" fill="#247CFF"/>
</svg>
