<svg width="17" height="25" viewBox="0 0 17 25" fill="none" xmlns="http://www.w3.org/2000/svg">
<path d="M10.704 21.224C9.81867 21.224 8.99733 21.0853 8.24 20.808C7.49333 20.52 6.84267 20.1147 6.288 19.592C5.744 19.0693 5.31733 18.456 5.008 17.752C4.69867 17.0373 4.544 16.2533 4.544 15.4C4.544 14.5467 4.69867 13.768 5.008 13.064C5.31733 12.3493 5.744 11.7307 6.288 11.208C6.84267 10.6853 7.49333 10.2853 8.24 10.008C8.99733 9.72 9.81867 9.576 10.704 9.576C11.7387 9.576 12.6613 9.75733 13.472 10.12C14.2933 10.4827 14.976 11.0053 15.52 11.688L13.504 13.512C13.1413 13.0853 12.7413 12.76 12.304 12.536C11.8773 12.312 11.3973 12.2 10.864 12.2C10.4053 12.2 9.984 12.2747 9.6 12.424C9.216 12.5733 8.88533 12.792 8.608 13.08C8.34133 13.3573 8.128 13.6933 7.968 14.088C7.81867 14.4827 7.744 14.92 7.744 15.4C7.744 15.88 7.81867 16.3173 7.968 16.712C8.128 17.1067 8.34133 17.448 8.608 17.736C8.88533 18.0133 9.216 18.2267 9.6 18.376C9.984 18.5253 10.4053 18.6 10.864 18.6C11.3973 18.6 11.8773 18.488 12.304 18.264C12.7413 18.04 13.1413 17.7147 13.504 17.288L15.52 19.112C14.976 19.784 14.2933 20.3067 13.472 20.68C12.6613 21.0427 11.7387 21.224 10.704 21.224Z" fill="#32334A"/>
<path d="M4.27708 10.367L5.02771 11.9448C5.22272 12.3546 5.62896 12.6296 6.0818 12.6552L9.61847 12.8524C10.0435 12.8774 10.4478 12.685 10.6965 12.3395L12.7747 9.47098C13.0405 9.1035 13.0834 8.61484 12.8884 8.20496L12.1378 6.6272L9.62799 10.0935C9.37926 10.4391 8.97499 10.6314 8.54995 10.6064L4.27708 10.367ZM5.08796 3.32964L1.58347 8.16435C1.29756 8.56203 1.56469 9.12351 2.05362 9.15255L8.01569 9.48347C8.44073 9.50848 8.845 9.31615 9.09374 8.97058L12.4353 4.35796L14.0141 7.67631C14.161 7.98513 14.5339 8.11759 14.8427 7.97067C15.1515 7.82375 15.284 7.45087 15.137 7.14206L13.4247 3.54297C13.3259 3.33522 13.1255 3.20336 12.8977 3.18777L6.166 2.81675C5.74363 2.79736 5.33937 2.98969 5.08796 3.32964Z" fill="#247CFF"/>
</svg>
