<svg width="32" height="22" viewBox="0 0 32 22" fill="none" xmlns="http://www.w3.org/2000/svg">
<path d="M10.312 18.128C9.384 18.128 8.55733 17.9413 7.832 17.568C7.10667 17.184 6.536 16.656 6.12 15.984C5.71467 15.312 5.512 14.5493 5.512 13.696C5.512 12.832 5.71467 12.0693 6.12 11.408C6.536 10.736 7.10667 10.2133 7.832 9.84C8.55733 9.456 9.384 9.264 10.312 9.264C11.2187 9.264 12.008 9.456 12.68 9.84C13.352 10.2133 13.848 10.752 14.168 11.456L12.232 12.496C12.008 12.0907 11.7253 11.792 11.384 11.6C11.0533 11.408 10.6907 11.312 10.296 11.312C9.86933 11.312 9.48533 11.408 9.144 11.6C8.80267 11.792 8.53067 12.064 8.328 12.416C8.136 12.768 8.04 13.1947 8.04 13.696C8.04 14.1973 8.136 14.624 8.328 14.976C8.53067 15.328 8.80267 15.6 9.144 15.792C9.48533 15.984 9.86933 16.08 10.296 16.08C10.6907 16.08 11.0533 15.9893 11.384 15.808C11.7253 15.616 12.008 15.312 12.232 14.896L14.168 15.952C13.848 16.6453 13.352 17.184 12.68 17.568C12.008 17.9413 11.2187 18.128 10.312 18.128Z" fill="#32334A"/>
<path d="M14.3091 18L19.3011 6.8H21.8611L26.8691 18H24.1491L20.0531 8.112H21.0771L16.9651 18H14.3091ZM16.8051 15.6L17.4931 13.632H23.2531L23.9571 15.6H16.8051ZM28.0311 18V6.8H30.6231V18H28.0311Z" fill="#247CFF"/>
<path d="M3.66371 9.38241L4.21687 11.0398C4.36057 11.4703 4.73035 11.7926 5.17672 11.8731L8.66315 12.499C9.08199 12.5755 9.50665 12.4338 9.79557 12.121L12.2072 9.52658C12.5157 9.19416 12.6178 8.71436 12.4741 8.2838L11.9209 6.62645L9.00815 9.7618C8.71923 10.0745 8.29458 10.2163 7.87573 10.1398L3.66371 9.38241ZM5.3245 2.49592L1.258 6.86849C0.925838 7.22845 1.12269 7.81825 1.60446 7.90655L7.48202 8.96016C7.90087 9.03668 8.32552 8.89494 8.61444 8.5822L12.4923 4.41026L13.6557 7.89599C13.7639 8.22038 14.1179 8.39721 14.4423 8.28894C14.7667 8.18067 14.9435 7.82667 14.8353 7.50228L13.5734 3.72165C13.5006 3.50342 13.3177 3.34816 13.0935 3.30499L6.45692 2.11796C6.04005 2.04734 5.61539 2.18907 5.3245 2.49592Z" fill="#247CFF"/>
</svg>
