<svg width="56" height="56" viewBox="0 0 56 56" fill="none" xmlns="http://www.w3.org/2000/svg">
<rect width="56" height="56" rx="8" fill="#367AFF"/>
<path d="M21.4889 29.2329L21.524 31.9583C21.5332 32.6664 21.9297 33.3209 22.5548 33.6524L27.4385 36.2376C28.0246 36.5502 28.7229 36.5411 29.3007 36.2136L34.1161 33.5031C34.7324 33.1556 35.1119 32.4911 35.1027 31.7831L35.0676 29.0576L29.2506 32.3339C28.6728 32.6615 27.9745 32.6705 27.3884 32.358L21.4889 29.2329ZM27.2262 19.788L19.1074 24.3551C18.443 24.7323 18.4555 25.7022 19.1295 26.0621L27.3634 30.4182C27.9494 30.7307 28.6478 30.7217 29.2256 30.3941L36.9687 26.0356L37.0427 31.7677C37.0496 32.3012 37.4916 32.732 38.0251 32.7251C38.5585 32.7182 38.9894 32.2761 38.9825 31.7427L38.9022 25.5256C38.8976 25.1667 38.6995 24.8492 38.3869 24.6786L29.0884 19.764C28.5024 19.4611 27.8041 19.4701 27.2262 19.788Z" fill="white"/>
</svg>
