<svg width="40" height="40" viewBox="0 0 40 40" fill="none" xmlns="http://www.w3.org/2000/svg">
<circle cx="20" cy="20" r="20" fill="#BF83FF"/>
<path fill-rule="evenodd" clip-rule="evenodd" d="M19.9466 10H21.3953C21.7806 10 22.093 10.3124 22.093 10.6977C22.093 11.083 21.7806 11.3953 21.3953 11.3953H20C17.7877 11.3953 16.1987 11.3968 14.9894 11.5594C13.8002 11.7193 13.0832 12.0234 12.5533 12.5533C12.0234 13.0832 11.7193 13.8002 11.5594 14.9894C11.3968 16.1987 11.3953 17.7877 11.3953 20C11.3953 22.2123 11.3968 23.8013 11.5594 25.0106C11.7193 26.1998 12.0234 26.9167 12.5533 27.4467C13.0832 27.9767 13.8002 28.2807 14.9894 28.4406C16.1987 28.6032 17.7877 28.6047 20 28.6047C22.2123 28.6047 23.8013 28.6032 25.0106 28.4406C26.1998 28.2807 26.9167 27.9767 27.4467 27.4467C27.9766 26.9167 28.2807 26.1998 28.4405 25.0106C28.6031 23.8013 28.6046 22.2123 28.6046 20V18.6047C28.6046 18.2193 28.917 17.907 29.3023 17.907C29.6876 17.907 30 18.2193 30 18.6047V20.0534C30 22.2007 30 23.8835 29.8235 25.1966C29.6428 26.5405 29.2657 27.601 28.4334 28.4334C27.601 29.2658 26.5404 29.6428 25.1965 29.8235C23.8835 30 22.2007 30 20.0534 30H19.9466C17.7993 30 16.1164 30 14.8034 29.8235C13.4595 29.6428 12.399 29.2658 11.5666 28.4334C10.7343 27.601 10.3572 26.5405 10.1765 25.1966C9.99998 23.8835 9.99999 22.2007 10 20.0534V19.9466C9.99999 17.7993 9.99998 16.1165 10.1765 14.8035C10.3572 13.4595 10.7343 12.399 11.5666 11.5666C12.399 10.7343 13.4595 10.3572 14.8034 10.1765C16.1164 9.99998 17.7993 9.99999 19.9466 10ZM24.4377 10.9543C25.7101 9.68189 27.7732 9.68189 29.0457 10.9543C30.3181 12.2268 30.3181 14.2898 29.0457 15.5623L22.8614 21.7466C22.516 22.092 22.2996 22.3084 22.0582 22.4967C21.7738 22.7185 21.4661 22.9087 21.1405 23.0638C20.8642 23.1955 20.5738 23.2923 20.1105 23.4467L17.4086 24.3474C16.9098 24.5136 16.3598 24.3838 15.988 24.012C15.6162 23.6402 15.4864 23.0902 15.6526 22.5913L16.5533 19.8895C16.7077 19.4261 16.8044 19.1358 16.9362 18.8594C17.0913 18.5339 17.2815 18.2261 17.5033 17.9418C17.6916 17.7003 17.908 17.484 18.2534 17.1386L24.4377 10.9543ZM28.059 11.941C27.3314 11.2135 26.1519 11.2135 25.4244 11.941L25.074 12.2913C25.0951 12.3805 25.1246 12.4868 25.1658 12.6053C25.2991 12.9895 25.5513 13.4955 26.0279 13.9721C26.5044 14.4486 27.0105 14.7009 27.3947 14.8342C27.5132 14.8753 27.6194 14.9049 27.7086 14.926L28.059 14.5756C28.7865 13.8481 28.7865 12.6685 28.059 11.941ZM26.6094 16.0252C26.1295 15.8188 25.5704 15.4879 25.0412 14.9587C24.5121 14.4296 24.1812 13.8705 23.9748 13.3906L19.2721 18.0933C18.8846 18.4807 18.7326 18.6344 18.6035 18.7999C18.4441 19.0044 18.3073 19.2257 18.1958 19.4597C18.1055 19.6493 18.036 19.8539 17.8627 20.3737L17.4609 21.579L18.421 22.5391L19.6263 22.1373C20.1461 21.964 20.3507 21.8945 20.5403 21.8042C20.7743 21.6927 20.9956 21.5559 21.2001 21.3965C21.3656 21.2673 21.5192 21.1153 21.9067 20.7279L26.6094 16.0252Z" fill="white"/>
</svg>
