<svg width="40" height="40" viewBox="0 0 40 40" fill="none" xmlns="http://www.w3.org/2000/svg">
<circle cx="20" cy="20" r="20" fill="#3CD856"/>
<g clip-path="url(#clip0_162_42)">
<path d="M21.5743 18.2788C22.4701 19.0096 22.918 19.3749 22.918 19.9998C22.918 20.6248 22.4701 20.9901 21.5743 21.7208C21.3271 21.9226 21.0818 22.1125 20.8564 22.2708C20.6586 22.4096 20.4347 22.5532 20.2029 22.6942C19.3092 23.2376 18.8624 23.5093 18.4616 23.2085C18.0609 22.9077 18.0245 22.2778 17.9516 21.0183C17.931 20.6621 17.918 20.3129 17.918 19.9998C17.918 19.6868 17.931 19.3376 17.9516 18.9813C18.0245 17.7218 18.0609 17.092 18.4616 16.7912C18.8624 16.4903 19.3092 16.7621 20.2029 17.3055C20.4347 17.4465 20.6586 17.5901 20.8564 17.7289C21.0818 17.8872 21.3271 18.0771 21.5743 18.2788Z" stroke="white" stroke-width="2"/>
<path d="M15.8346 12.7814C17.0604 12.0723 18.4835 11.6665 20.0013 11.6665C24.6036 11.6665 28.3346 15.3975 28.3346 19.9998C28.3346 24.6022 24.6036 28.3332 20.0013 28.3332C15.3989 28.3332 11.668 24.6022 11.668 19.9998C11.668 18.482 12.0738 17.0589 12.7828 15.8332" stroke="white" stroke-width="2" stroke-linecap="round"/>
</g>
<defs>
<clipPath id="clip0_162_42">
<rect width="20" height="20" fill="white" transform="translate(10 10)"/>
</clipPath>
</defs>
</svg>
