<svg width="30" height="30" viewBox="0 0 30 30" fill="none" xmlns="http://www.w3.org/2000/svg">
<path d="M25.9509 9.30548L18.7918 2.17303C18.6967 2.07844 18.5839 2.00344 18.4597 1.9523C18.3356 1.90116 18.2025 1.8749 18.0682 1.875H5.79545C5.25297 1.875 4.7327 2.0897 4.3491 2.47187C3.9655 2.85404 3.75 3.37237 3.75 3.91284V26.3291C3.75 26.8696 3.9655 27.3879 4.3491 27.7701C4.7327 28.1522 5.25297 28.3669 5.79545 28.3669H24.2045C24.747 28.3669 25.2673 28.1522 25.6509 27.7701C26.0345 27.3879 26.25 26.8696 26.25 26.3291V10.0264C26.2501 9.89252 26.2237 9.75996 26.1724 9.63627C26.1211 9.51258 26.0458 9.40018 25.9509 9.30548ZM19.0909 5.35334L22.7587 9.00745H19.0909V5.35334ZM24.2045 26.3291H5.79545V3.91284H17.0455V10.0264C17.0455 10.2966 17.1532 10.5558 17.345 10.7469C17.5368 10.9379 17.7969 11.0453 18.0682 11.0453H24.2045V26.3291ZM19.0909 18.1777C19.0909 18.448 18.9832 18.7071 18.7914 18.8982C18.5996 19.0893 18.3394 19.1967 18.0682 19.1967H16.0227V21.2345C16.0227 21.5047 15.915 21.7639 15.7232 21.955C15.5314 22.1461 15.2712 22.2534 15 22.2534C14.7288 22.2534 14.4686 22.1461 14.2768 21.955C14.085 21.7639 13.9773 21.5047 13.9773 21.2345V19.1967H11.9318C11.6606 19.1967 11.4004 19.0893 11.2086 18.8982C11.0168 18.7071 10.9091 18.448 10.9091 18.1777C10.9091 17.9075 11.0168 17.6483 11.2086 17.4572C11.4004 17.2662 11.6606 17.1588 11.9318 17.1588H13.9773V15.121C13.9773 14.8507 14.085 14.5916 14.2768 14.4005C14.4686 14.2094 14.7288 14.102 15 14.102C15.2712 14.102 15.5314 14.2094 15.7232 14.4005C15.915 14.5916 16.0227 14.8507 16.0227 15.121V17.1588H18.0682C18.3394 17.1588 18.5996 17.2662 18.7914 17.4572C18.9832 17.6483 19.0909 17.9075 19.0909 18.1777Z" fill="#737791"/>
</svg>
