<svg width="30" height="30" viewBox="0 0 30 30" fill="none" xmlns="http://www.w3.org/2000/svg">
<g clip-path="url(#clip0_143_3526)">
<path d="M0.708784 6.4198L14.7104 2.17667C14.8992 2.1195 15.1008 2.1195 15.2895 2.17667L29.2912 6.4198C29.7121 6.54738 30 6.93535 30 7.37525C30 7.81515 29.7121 8.20303 29.2912 8.33071L25.8819 9.36384V15.8147C25.8819 16.1539 25.7097 16.47 25.4245 16.6537C24.463 17.2736 23.5154 17.7866 22.5874 18.2073V21.3769C22.5874 21.3891 22.586 21.401 22.5856 21.4131C23.1248 21.748 23.4859 22.3439 23.4859 23.024C23.4859 23.2388 23.4483 23.4445 23.3822 23.6372C23.3865 23.6482 23.3913 23.6587 23.395 23.6699L24.4433 26.8146C24.5244 27.0583 24.4836 27.326 24.3335 27.5342C24.1834 27.7425 23.9423 27.866 23.6856 27.866H19.4925C19.2359 27.866 18.9947 27.7425 18.8445 27.5342C18.6945 27.326 18.6536 27.0583 18.7347 26.8146L19.783 23.6699C19.7868 23.6587 19.7916 23.6481 19.7959 23.6372C19.7298 23.4445 19.6922 23.2388 19.6922 23.024C19.6922 22.3438 20.0532 21.748 20.5925 21.4131C20.5921 21.401 20.5907 21.3891 20.5907 21.3769V18.986C18.5568 19.6535 16.6474 19.9017 14.9338 19.9017C13.3387 19.9017 11.9126 19.687 10.714 19.3964C6.95757 18.4859 4.60242 16.6794 4.50394 16.6029C4.2605 16.4138 4.11808 16.1227 4.11808 15.8144V9.36384L0.708784 8.33071C0.287874 8.20303 -3.8147e-06 7.81515 -3.8147e-06 7.37525C-3.8147e-06 6.93535 0.287874 6.54738 0.708784 6.4198ZM22.5874 15.9921C23.0218 15.7681 23.4545 15.5258 23.8853 15.2627V9.96889L22.5874 10.3622V15.9921ZM22.5775 26.2689L22.1039 24.8482C21.94 24.8945 21.7678 24.9211 21.5891 24.9211C21.4104 24.9211 21.2383 24.8945 21.0742 24.8482L20.6007 26.2689H22.5775ZM21.8886 23.0242C21.8886 22.8591 21.7542 22.7247 21.5891 22.7247C21.4239 22.7247 21.2896 22.8591 21.2896 23.0242C21.2896 23.1894 21.4239 23.3237 21.5891 23.3237C21.7542 23.3237 21.8886 23.1894 21.8886 23.0242ZM6.11474 15.2937C6.87858 15.7945 8.72707 16.8738 11.2658 17.4757C14.4203 18.2232 17.5429 18.0211 20.5907 16.8799V10.9674L15.2896 12.5738C15.1953 12.6024 15.0977 12.6168 15 12.6168C14.9023 12.6168 14.8048 12.6024 14.7104 12.5738L6.11474 9.96899V15.2937ZM15 10.5752L18.3992 9.54505L14.6821 8.29667C14.1595 8.12121 13.878 7.55515 14.0535 7.03243C14.229 6.5098 14.795 6.22849 15.3178 6.40384L21.6959 8.54606L25.5593 7.37525L15 4.17525L4.4407 7.37525L15 10.5752Z" fill="white"/>
</g>
<defs>
<clipPath id="clip0_143_3526">
<rect width="30" height="30" fill="white" transform="matrix(-1 0 0 1 30 0)"/>
</clipPath>
</defs>
</svg>
