<svg width="30" height="30" viewBox="0 0 30 30" fill="none" xmlns="http://www.w3.org/2000/svg">
<g clip-path="url(#clip0_143_3526)">
<path d="M0.708784 6.41968L14.7104 2.17655C14.8992 2.11937 15.1008 2.11937 15.2895 2.17655L29.2912 6.41968C29.7121 6.54725 30 6.93523 30 7.37513C30 7.81503 29.7121 8.20291 29.2912 8.33059L25.8819 9.36372V15.8146C25.8819 16.1538 25.7097 16.4699 25.4245 16.6536C24.463 17.2735 23.5154 17.7864 22.5874 18.2072V21.3767C22.5874 21.389 22.586 21.4009 22.5856 21.413C23.1248 21.7479 23.4859 22.3438 23.4859 23.0239C23.4859 23.2387 23.4483 23.4444 23.3822 23.6371C23.3865 23.6481 23.3913 23.6586 23.395 23.6698L24.4433 26.8145C24.5244 27.0582 24.4836 27.3258 24.3335 27.5341C24.1834 27.7424 23.9423 27.8658 23.6856 27.8658H19.4925C19.2359 27.8658 18.9947 27.7424 18.8445 27.5341C18.6945 27.3258 18.6536 27.0582 18.7347 26.8145L19.783 23.6698C19.7868 23.6586 19.7916 23.648 19.7959 23.6371C19.7298 23.4444 19.6922 23.2387 19.6922 23.0239C19.6922 22.3437 20.0532 21.7479 20.5925 21.413C20.5921 21.4009 20.5907 21.389 20.5907 21.3767V18.9858C18.5568 19.6534 16.6474 19.9016 14.9338 19.9016C13.3387 19.9016 11.9126 19.6868 10.714 19.3962C6.95757 18.4857 4.60242 16.6793 4.50394 16.6028C4.2605 16.4137 4.11808 16.1226 4.11808 15.8143V9.36372L0.708784 8.33059C0.287874 8.20291 -3.8147e-06 7.81503 -3.8147e-06 7.37513C-3.8147e-06 6.93523 0.287874 6.54725 0.708784 6.41968ZM22.5874 15.992C23.0218 15.768 23.4545 15.5256 23.8853 15.2626V9.96877L22.5874 10.3621V15.992ZM22.5775 26.2688L22.1039 24.8481C21.94 24.8944 21.7678 24.921 21.5891 24.921C21.4104 24.921 21.2383 24.8944 21.0742 24.8481L20.6007 26.2688H22.5775ZM21.8886 23.0241C21.8886 22.859 21.7542 22.7246 21.5891 22.7246C21.4239 22.7246 21.2896 22.859 21.2896 23.0241C21.2896 23.1893 21.4239 23.3236 21.5891 23.3236C21.7542 23.3236 21.8886 23.1893 21.8886 23.0241ZM6.11474 15.2936C6.87858 15.7944 8.72707 16.8737 11.2658 17.4755C14.4203 18.2231 17.5429 18.021 20.5907 16.8798V10.9673L15.2896 12.5737C15.1953 12.6023 15.0977 12.6166 15 12.6166C14.9023 12.6166 14.8048 12.6023 14.7104 12.5737L6.11474 9.96887V15.2936ZM15 10.575L18.3992 9.54493L14.6821 8.29655C14.1595 8.12109 13.878 7.55503 14.0535 7.0323C14.229 6.50968 14.795 6.22836 15.3178 6.40372L21.6959 8.54594L25.5593 7.37513L15 4.17513L4.4407 7.37513L15 10.575Z" fill="#737791"/>
</g>
<defs>
<clipPath id="clip0_143_3526">
<rect width="30" height="30" fill="white" transform="matrix(-1 0 0 1 30 0)"/>
</clipPath>
</defs>
</svg>
