<svg width="30" height="30" viewBox="0 0 30 30" fill="none" xmlns="http://www.w3.org/2000/svg">
<path fill-rule="evenodd" clip-rule="evenodd" d="M14.9283 1.5625H16.875C17.3927 1.5625 17.8125 1.98224 17.8125 2.5C17.8125 3.01776 17.3927 3.4375 16.875 3.4375H15C12.0272 3.4375 9.89195 3.43949 8.26698 3.65796C6.66896 3.87281 5.70556 4.28143 4.9935 4.9935C4.28143 5.70556 3.87281 6.66896 3.65796 8.26697C3.43949 9.89195 3.4375 12.0272 3.4375 15C3.4375 17.9727 3.43949 20.108 3.65796 21.733C3.87281 23.331 4.28143 24.2944 4.9935 25.0065C5.70556 25.7186 6.66896 26.1272 8.26698 26.342C9.89195 26.5605 12.0272 26.5625 15 26.5625C17.9727 26.5625 20.108 26.5605 21.733 26.342C23.331 26.1272 24.2944 25.7186 25.0065 25.0065C25.7186 24.2944 26.1273 23.331 26.342 21.733C26.5605 20.108 26.5625 17.9727 26.5625 15V13.125C26.5625 12.6072 26.9823 12.1875 27.5 12.1875C28.0177 12.1875 28.4375 12.6072 28.4375 13.125V15.0717C28.4375 17.9572 28.4375 20.2185 28.2004 21.9829C27.9575 23.7887 27.4509 25.2139 26.3324 26.3324C25.2139 27.4509 23.7887 27.9575 21.9829 28.2004C20.2185 28.4375 17.9572 28.4375 15.0717 28.4375H14.9283C12.0428 28.4375 9.78149 28.4375 8.01714 28.2004C6.21121 27.9575 4.78619 27.4509 3.66768 26.3324C2.54916 25.2139 2.04249 23.7887 1.79969 21.9829C1.56248 20.2185 1.56249 17.9572 1.5625 15.0717V14.9282C1.56249 12.0428 1.56248 9.78149 1.79969 8.01714C2.04249 6.21121 2.54916 4.78619 3.66768 3.66768C4.78619 2.54916 6.21121 2.04249 8.01714 1.79969C9.78149 1.56248 12.0428 1.56249 14.9283 1.5625ZM20.9631 2.8449C22.673 1.13504 25.4452 1.13504 27.1551 2.8449C28.865 4.55475 28.865 7.32697 27.1551 9.03684L18.845 17.347C18.3809 17.8111 18.0901 18.1019 17.7657 18.355C17.3836 18.653 16.9701 18.9085 16.5326 19.117C16.1613 19.294 15.7711 19.424 15.1485 19.6315L11.5178 20.8417C10.8475 21.0651 10.1085 20.8907 9.60889 20.3911C9.10927 19.8915 8.93481 19.1525 9.15825 18.4821L10.3685 14.8515C10.576 14.2289 10.706 13.8387 10.883 13.4674C11.0915 13.0299 11.347 12.6164 11.6451 12.2343C11.8981 11.9098 12.1889 11.6191 12.653 11.155L20.9631 2.8449ZM25.8293 4.17073C24.8516 3.1931 23.2666 3.1931 22.289 4.17073L21.8182 4.6415C21.8466 4.76133 21.8862 4.90409 21.9415 5.06333C22.1206 5.57965 22.4596 6.25964 23.1 6.89999C23.7404 7.54034 24.4204 7.87932 24.9366 8.05846C25.0959 8.11371 25.2386 8.15341 25.3585 8.18179L25.8293 7.71101C26.8069 6.73339 26.8069 5.14834 25.8293 4.17073ZM23.8814 9.65886C23.2365 9.38149 22.4853 8.93682 21.7741 8.22581C21.0631 7.51481 20.6185 6.76352 20.3411 6.11857L14.0219 12.4378C13.5012 12.9585 13.297 13.165 13.1235 13.3874C12.9093 13.6621 12.7255 13.9595 12.5756 14.274C12.4542 14.5287 12.3609 14.8036 12.128 15.5021L11.5881 17.1217L12.8783 18.4119L14.4979 17.872C15.1964 17.6391 15.4713 17.5457 15.726 17.4244C16.0405 17.2745 16.3379 17.0907 16.6126 16.8765C16.835 16.703 17.0415 16.4987 17.5621 15.9781L23.8814 9.65886Z" fill="white"/>
</svg>
