<svg width="30" height="30" viewBox="0 0 30 30" fill="none" xmlns="http://www.w3.org/2000/svg">
<path d="M16.6265 10.1375L18.2765 13.4375C18.5015 13.8875 19.1015 14.3375 19.6015 14.4125L22.589 14.9125C24.5015 15.2375 24.9515 16.6125 23.5765 17.9875L21.2515 20.3125C20.864 20.7 20.639 21.4625 20.764 22.0125L21.4265 24.9C21.9515 27.175 20.739 28.0625 18.7265 26.875L15.9265 25.2125C15.414 24.9125 14.589 24.9125 14.0765 25.2125L11.2764 26.875C9.26392 28.0625 8.0514 27.175 8.5764 24.9L9.23894 22.0125C9.36394 21.475 9.13893 20.7125 8.75143 20.3125L6.42644 17.9875C5.05144 16.6125 5.50142 15.225 7.41392 14.9125L10.4014 14.4125C10.9014 14.325 11.5014 13.8875 11.7264 13.4375L13.3765 10.1375C14.264 8.35 15.739 8.35 16.6265 10.1375Z" stroke="#737791" stroke-width="1.875" stroke-linecap="round" stroke-linejoin="round"/>
<path d="M7.5 11.25V2.5" stroke="#737791" stroke-width="1.875" stroke-linecap="round" stroke-linejoin="round"/>
<path d="M22.5 11.25V2.5" stroke="#737791" stroke-width="1.875" stroke-linecap="round" stroke-linejoin="round"/>
<path d="M15 5V2.5" stroke="#737791" stroke-width="1.875" stroke-linecap="round" stroke-linejoin="round"/>
</svg>
