<svg width="30" height="30" viewBox="0 0 30 30" fill="none" xmlns="http://www.w3.org/2000/svg">
<path d="M16.6259 10.1375L18.2759 13.4375C18.5009 13.8875 19.1009 14.3375 19.6009 14.4125L22.5884 14.9125C24.5009 15.2375 24.9509 16.6125 23.5759 17.9875L21.2509 20.3125C20.8634 20.7 20.6384 21.4625 20.7634 22.0125L21.4259 24.9C21.9509 27.175 20.7384 28.0625 18.7259 26.875L15.9259 25.2125C15.4134 24.9125 14.5884 24.9125 14.0759 25.2125L11.2758 26.875C9.26331 28.0625 8.05079 27.175 8.57579 24.9L9.23833 22.0125C9.36333 21.475 9.13832 20.7125 8.75082 20.3125L6.42583 17.9875C5.05083 16.6125 5.5008 15.225 7.4133 14.9125L10.4008 14.4125C10.9008 14.325 11.5008 13.8875 11.7258 13.4375L13.3759 10.1375C14.2634 8.35 15.7384 8.35 16.6259 10.1375Z" stroke="white" stroke-width="1.875" stroke-linecap="round" stroke-linejoin="round"/>
<path d="M7.5 11.25V2.5" stroke="white" stroke-width="1.875" stroke-linecap="round" stroke-linejoin="round"/>
<path d="M22.5 11.25V2.5" stroke="white" stroke-width="1.875" stroke-linecap="round" stroke-linejoin="round"/>
<path d="M15 5V2.5" stroke="white" stroke-width="1.875" stroke-linecap="round" stroke-linejoin="round"/>
</svg>
