<svg width="21" height="22" viewBox="0 0 21 22" fill="none" xmlns="http://www.w3.org/2000/svg">
<path d="M7.0518 8.47998L10.4993 10.2125L13.9468 8.47998L18.2168 17.0025L15.5568 16.74L14.1918 19.0325L10.4993 11.6825L6.8068 19.0325L5.4418 16.74L2.7818 17.0025L7.0518 8.47998Z" fill="#E24255"/>
<path d="M10.4998 14.2551C7.38764 14.2551 4.86477 11.7322 4.86477 8.62011C4.86477 5.50798 7.38764 2.98511 10.4998 2.98511C13.6119 2.98511 16.1348 5.50798 16.1348 8.62011C16.1348 11.7322 13.6119 14.2551 10.4998 14.2551Z" fill="#FFC54D"/>
<path d="M10.4983 13.0474C8.05304 13.0474 6.07078 11.0651 6.07078 8.61988C6.07078 6.17464 8.05304 4.19238 10.4983 4.19238C12.9435 4.19238 14.9258 6.17464 14.9258 8.61988C14.9258 11.0651 12.9435 13.0474 10.4983 13.0474Z" fill="#E8B04B"/>
<path d="M10.2906 5.96011L9.5556 7.43011C9.5206 7.50011 9.4506 7.55261 9.3806 7.57011L7.7531 7.81511C7.5606 7.85011 7.4731 8.07761 7.6131 8.21761L8.7856 9.37261C8.8381 9.42511 8.8731 9.51261 8.8556 9.58261L8.5756 11.2101C8.5406 11.4026 8.7506 11.5601 8.9256 11.4551L10.3781 10.6851C10.4481 10.6501 10.5356 10.6501 10.6056 10.6851L12.0756 11.4551C12.2506 11.5426 12.4606 11.4026 12.4256 11.2101L12.1456 9.58261C12.1281 9.51261 12.1631 9.42511 12.2156 9.37261L13.3881 8.21761C13.5281 8.07761 13.4581 7.83261 13.2481 7.81511L11.6206 7.57011C11.5506 7.55261 11.4806 7.51761 11.4456 7.43011L10.7106 5.96011C10.6231 5.78511 10.3781 5.78511 10.2906 5.96011Z" fill="white"/>
</svg>
