<svg width="21" height="22" viewBox="0 0 21 22" fill="none" xmlns="http://www.w3.org/2000/svg">
<path d="M13.9482 8.47998L10.5007 10.2125L7.0532 8.47998L2.7832 17.0025L5.4432 16.74L6.8082 19.0325L10.5007 11.6825L14.1932 19.0325L15.5582 16.74L18.2182 17.0025L13.9482 8.47998Z" fill="#C4C4C4"/>
<path d="M10.5002 14.2549C13.6124 14.2549 16.1352 11.732 16.1352 8.61986C16.1352 5.50774 13.6124 2.98486 10.5002 2.98486C7.38811 2.98486 4.86523 5.50774 4.86523 8.61986C4.86523 11.732 7.38811 14.2549 10.5002 14.2549Z" fill="#E5B97F"/>
<path d="M10.4998 13.0471C12.945 13.0471 14.9273 11.0649 14.9273 8.61964C14.9273 6.1744 12.945 4.19214 10.4998 4.19214C8.05452 4.19214 6.07227 6.1744 6.07227 8.61964C6.07227 11.0649 8.05452 13.0471 10.4998 13.0471Z" fill="#C19A6B"/>
<path d="M10.7114 5.96011L11.4464 7.43011C11.4814 7.50011 11.5514 7.55261 11.6214 7.57011L13.2489 7.81511C13.4414 7.85011 13.5289 8.07761 13.3889 8.21761L12.2164 9.37261C12.1639 9.42511 12.1289 9.51261 12.1464 9.58261L12.4264 11.2101C12.4614 11.4026 12.2514 11.5601 12.0764 11.4551L10.6239 10.6851C10.5539 10.6501 10.4664 10.6501 10.3964 10.6851L8.92635 11.4551C8.75135 11.5426 8.54135 11.4026 8.57635 11.2101L8.85635 9.58261C8.87385 9.51261 8.83885 9.42511 8.78635 9.37261L7.61385 8.21761C7.47385 8.07761 7.54385 7.83261 7.75385 7.81511L9.38135 7.57011C9.45135 7.55261 9.52135 7.51761 9.55635 7.43011L10.2914 5.96011C10.3789 5.78511 10.6239 5.78511 10.7114 5.96011Z" fill="white"/>
</svg>
