<svg width="21" height="22" viewBox="0 0 21 22" fill="none" xmlns="http://www.w3.org/2000/svg">
<path d="M13.9482 8.47998L10.5007 10.2125L7.0532 8.47998L2.7832 17.0025L5.4432 16.74L6.8082 19.0325L10.5007 11.6825L14.1932 19.0325L15.5582 16.74L18.2182 17.0025L13.9482 8.47998Z" fill="#FFBF4B"/>
<path d="M10.5002 14.2549C13.6124 14.2549 16.1352 11.732 16.1352 8.61986C16.1352 5.50774 13.6124 2.98486 10.5002 2.98486C7.38811 2.98486 4.86523 5.50774 4.86523 8.61986C4.86523 11.732 7.38811 14.2549 10.5002 14.2549Z" fill="#EDEDED"/>
<path d="M10.4998 13.0474C12.945 13.0474 14.9273 11.0651 14.9273 8.61988C14.9273 6.17464 12.945 4.19238 10.4998 4.19238C8.05452 4.19238 6.07227 6.17464 6.07227 8.61988C6.07227 11.0651 8.05452 13.0474 10.4998 13.0474Z" fill="#BCBCBC"/>
<path d="M10.7094 5.95986L11.4444 7.42986C11.4794 7.49986 11.5494 7.55236 11.6194 7.56986L13.2469 7.81486C13.4394 7.84986 13.5269 8.07736 13.3869 8.21736L12.2144 9.37236C12.1619 9.42486 12.1269 9.51236 12.1444 9.58236L12.4244 11.2099C12.4594 11.4024 12.2494 11.5599 12.0744 11.4549L10.6219 10.6849C10.5519 10.6499 10.4644 10.6499 10.3944 10.6849L8.9244 11.4549C8.7494 11.5424 8.5394 11.4024 8.5744 11.2099L8.8544 9.58236C8.8719 9.51236 8.8369 9.42486 8.7844 9.37236L7.6119 8.21736C7.4719 8.07736 7.5419 7.83236 7.7519 7.81486L9.3794 7.56986C9.4494 7.55236 9.5194 7.51736 9.5544 7.42986L10.2894 5.95986C10.3769 5.78486 10.6219 5.78486 10.7094 5.95986Z" fill="white"/>
</svg>
